#!OML:ASF H:\GeneralSubjects\Female5\Project 1\Capture day 1\Session 1\Female5.ASF
:FULLY-SPECIFIED
:DEGREES
1
root 26.4887 16.0039 5.05251 -171.155 1.21282 -177.102
lowerback 5.08429 2.14235 3.75273
upperback -9.44683 4.18292 0.400606
thorax -12.9027 1.97525 -2.39619
lowerneck -11.1525 7.51018 10.5737
upperneck 29.4913 5.55119 2.68089
head 11.8559 3.27323 -0.178519
rclavicle -8.74653e-015 -6.06293e-015
rhumerus -51.1461 7.7 -80.0198
rradius 33.0217
rwrist -8.08533
rhand -25.2624 -19.381
rfingers 7.12502
rthumb 1.25815 -49.357
lclavicle -8.74653e-015 -6.06293e-015
lhumerus -44.4837 -4.84488 80.49
lradius 28.7
lwrist -13.1516
lhand -19.9424 27.5963
lfingers 7.12502
lthumb 6.39542 57.4798
rfemur 2.25954 20.0264 35.7974
rtibia -8.802
rfoot -13.9271 -20.2568
rtoes -6.38322
lfemur -9.57109 -18.7421 -24.2133
ltibia 12.915
lfoot -18.6727 -5.65065
ltoes -27.1996
2
root 26.4737 16.0146 5.02994 -171.31 0.983666 -176.952
lowerback 4.89255 2.17661 3.72411
upperback -9.54768 4.23774 0.330481
thorax -12.8949 2.00973 -2.45888
lowerneck -11.1234 7.24543 10.4432
upperneck 29.175 5.20146 2.8319
head 11.6989 3.12057 -0.157342
rclavicle 6.53505e-015 1.41013e-015
rhumerus -51.2058 6.82681 -79.6826
rradius 33.055
rwrist -8.19769
rhand -25.5264 -19.33
rfingers 7.12502
rthumb 1.00315 -49.3074
lclavicle 6.53505e-015 1.41013e-015
lhumerus -44.5981 -4.79428 80.3389
lradius 28.5886
lwrist -13.578
lhand -19.9345 26.9638
lfingers 7.12502
lthumb 6.40306 56.847
rfemur 3.53772 19.7253 36.1622
rtibia -10.6056
rfoot -13.3859 -20.4543
rtoes -5.14618
lfemur -8.67239 -18.3763 -24.1586
ltibia 11.5922
lfoot -18.3414 -5.16442
ltoes -26.9569
3
root 26.4639 16.0256 5.01116 -171.426 0.767271 -176.956
lowerback 4.66652 2.14831 3.49324
upperback -9.6305 4.18042 0.273015
thorax -12.8636 2.01114 -2.37567
lowerneck -11.1832 7.06384 10.384
upperneck 29.0265 5.02298 2.68888
head 11.6435 3.02055 -0.226119
rclavicle 4.27387e-015 5.51627e-015
rhumerus -51.3346 6.41966 -79.6027
rradius 33.2628
rwrist -8.64606
rhand -25.8483 -19.3417
rfingers 7.12502
rthumb 0.692225 -49.3203
lclavicle 4.27387e-015 5.51627e-015
lhumerus -44.5452 -4.76545 80.1058
lradius 28.3417
lwrist -13.8141
lhand -18.6249 26.7586
lfingers 7.12502
lthumb 7.66721 56.5996
rfemur 4.52013 19.4245 36.2751
rtibia -12.058
rfoot -12.5157 -20.6278
rtoes -5.6897
lfemur -8.04752 -17.9767 -24.2117
ltibia 10.6408
lfoot -17.7788 -4.77812
ltoes -26.7069
4
root 26.4564 16.0339 5.00206 -171.437 0.527245 -177.042
lowerback 4.42485 2.05719 3.16784
upperback -9.7123 4.03418 0.263056
thorax -12.835 1.98308 -2.17482
lowerneck -11.4152 7.03526 10.1865
upperneck 29.0574 5.06089 2.5736
head 11.6942 3.01196 -0.223334
rclavicle 4.13845e-014 6.16232e-015
rhumerus -51.4051 6.49045 -79.7119
rradius 33.5014
rwrist -9.38602
rhand -25.913 -19.4662
rfingers 7.12502
rthumb 0.629737 -49.445
lclavicle 4.13845e-014 6.16232e-015
lhumerus -44.2969 -4.49058 79.7567
lradius 27.9964
lwrist -13.8085
lhand -18.4943 27.3135
lfingers 7.12502
lthumb 7.79323 57.1499
rfemur 5.01179 19.1313 36.1943
rtibia -12.9618
rfoot -11.7468 -20.8
rtoes -6.65173
lfemur -7.80834 -17.4247 -24.2483
ltibia 10.0459
lfoot -16.9411 -4.66564
ltoes -27.115
5
root 26.4527 16.0421 5.00125 -171.45 0.299579 -177.072
lowerback 4.30624 2.00551 2.85342
upperback -9.79928 3.95262 0.288093
thorax -12.8873 1.98415 -1.95982
lowerneck -11.4249 6.92161 9.96762
upperneck 28.7429 5.07048 2.40985
head 11.5622 2.98504 -0.249113
rclavicle -1.93318e-014 -9.74045e-015
rhumerus -51.4694 6.75183 -79.9038
rradius 33.694
rwrist -10.2557
rhand -25.7107 -19.4532
rfingers 7.12502
rthumb 0.825193 -49.4314
lclavicle -1.93318e-014 -9.74045e-015
lhumerus -44.2536 -3.58124 79.2645
lradius 27.9037
lwrist -14.3579
lhand -17.7543 27.0602
lfingers 7.12502
lthumb 8.50746 56.8688
rfemur 5.12939 18.8928 36.1807
rtibia -13.2083
rfoot -11.5813 -20.8958
rtoes -6.68345
lfemur -7.56917 -16.9892 -24.2044
ltibia 9.41903
lfoot -16.1871 -4.62483
ltoes -27.7687
6
root 26.4426 16.0493 4.99068 -171.458 0.225751 -177.123
lowerback 4.08213 2.04749 2.67126
upperback -9.87006 3.99927 0.234368
thorax -12.8348 2.03137 -1.91491
lowerneck -11.3073 6.73594 9.92885
upperneck 28.3163 5.0316 1.99664
head 11.3744 2.92566 -0.406536
rclavicle 2.32081e-014 7.7526e-015
rhumerus -51.5635 6.97821 -80.1436
rradius 33.8718
rwrist -10.836
rhand -25.4654 -19.442
rfingers 7.12502
rthumb 1.06212 -49.4191
lclavicle 2.32081e-014 7.7526e-015
lhumerus -44.2985 -3.58476 78.99
lradius 28.0415
lwrist -14.2959
lhand -19.7041 27.8697
lfingers 7.12502
lthumb 6.62549 57.746
rfemur 5.09831 18.802 36.0859
rtibia -13.0695
rfoot -11.7554 -20.9082
rtoes -7.47591
lfemur -6.88524 -17.1152 -24.3573
ltibia 8.2502
lfoot -16.1015 -4.23733
ltoes -28.1238
7
root 26.4228 16.0538 4.97986 -171.375 0.289431 -177.244
lowerback 3.758 2.15639 2.64378
upperback -9.93189 4.13505 0.0529724
thorax -12.6865 2.10034 -2.09912
lowerneck -11.3054 6.5977 9.86904
upperneck 28.0193 4.99018 1.7215
head 11.2578 2.87885 -0.504475
rclavicle 1.37161e-014 6.4605e-015
rhumerus -51.6143 7.25482 -80.5716
rradius 34.0049
rwrist -11.0305
rhand -25.6316 -19.5428
rfingers 7.12502
rthumb 0.901522 -49.5206
lclavicle 1.37161e-014 6.4605e-015
lhumerus -44.1662 -3.52963 78.5617
lradius 28.0955
lwrist -14.3384
lhand -19.8322 27.6057
lfingers 7.12502
lthumb 6.50182 57.4859
rfemur 4.85145 18.8485 35.8087
rtibia -12.7131
rfoot -11.8042 -20.909
rtoes -8.86415
lfemur -6.04833 -17.4852 -24.6762
ltibia 6.74395
lfoot -16.3548 -3.57121
ltoes -28.1864
